<svg t="1756868834692" class="icon" viewBox="0 0 1024 1024" version="1.1" xmlns="http://www.w3.org/2000/svg" p-id="13220" width="200" height="200"><path d="M915.456 162.304h-349.184v-16.896c0-33.792-31.232-59.392-64-52.736L125.44 167.424C99.84 172.032 81.92 194.56 81.92 220.16v583.68c0 25.6 18.432 48.128 43.52 52.736L501.76 929.28c33.28 6.656 64-18.944 64-52.736v-15.36h349.184c14.848 0 26.624-11.776 26.624-26.624V189.44c0.512-14.848-11.264-27.136-26.112-27.136z m-720.384 476.16l63.488-119.296c2.048-3.584 2.048-8.192 0-12.288L200.192 386.56c-2.048-4.096 0.512-8.704 5.12-9.728l37.888-6.656c6.144-1.024 12.288 2.048 14.848 7.68l32.768 76.288c3.072 7.168 5.632 15.36 8.192 24.576h0.512c2.56-8.192 5.12-17.408 8.704-26.624l43.52-95.232c2.048-4.096 5.632-6.656 9.728-7.68l56.32-9.728c5.632-1.024 9.728 5.12 7.168 9.728L339.968 505.344c-2.048 4.096-2.048 9.216 0 12.8l88.064 158.72c2.56 5.12-1.536 10.752-7.168 9.728L359.936 675.84c-4.608-0.512-8.192-3.584-9.728-7.68L302.08 564.736c-1.536-3.584-3.584-10.752-5.12-19.968h-0.512c-1.024 4.608-3.072 11.264-6.144 19.968l-39.936 82.432c-2.56 5.632-8.704 8.704-14.336 7.168l-36.352-6.144c-4.096-1.024-6.656-5.632-4.608-9.728z m693.248 162.304c0 3.584-3.072 6.656-6.656 6.656h-315.904v-73.728c0-3.584 3.072-6.656 6.656-6.656h80.896c3.584 0 6.656-3.072 6.656-6.656v-40.448c0-3.584-3.072-6.656-6.656-6.656h-80.896c-3.584 0-6.656-3.072-6.656-6.656V640c0-3.584 3.072-6.656 6.656-6.656h80.896c3.584 0 6.656-3.072 6.656-6.656v-40.448c0-3.584-3.072-6.656-6.656-6.656h-80.896c-3.584 0-6.656-3.072-6.656-6.656v-26.624c0-3.584 3.072-6.656 6.656-6.656h80.896c3.584 0 6.656-3.072 6.656-6.656V491.52c0-3.584-3.072-6.656-6.656-6.656h-80.896c-3.584 0-6.656-3.072-6.656-6.656v-26.624c0-3.584 3.072-6.656 6.656-6.656h80.896c3.584 0 6.656-3.072 6.656-6.656v-40.448c0-3.584-3.072-6.656-6.656-6.656h-80.896c-3.584 0-6.656-3.072-6.656-6.656v-26.624c0-3.584 3.072-6.656 6.656-6.656h80.896c3.584 0 6.656-3.072 6.656-6.656v-40.448c0-3.584-3.072-6.656-6.656-6.656h-80.896c-3.584 0-6.656-3.072-6.656-6.656V216.064h315.904c3.584 0 6.656 3.072 6.656 6.656v578.048z"  p-id="13221"></path><path d="M720.384 296.96c-3.584 0-6.656 3.072-6.656 6.656v40.448c0 3.584 3.072 6.656 6.656 6.656h107.52c3.584 0 6.656-3.072 6.656-6.656v-40.448c0-3.584-3.072-6.656-6.656-6.656h-107.52z m0 93.696c-3.584 0-6.656 3.072-6.656 6.656v40.448c0 3.584 3.072 6.656 6.656 6.656h107.52c3.584 0 6.656-3.072 6.656-6.656v-40.448c0-3.584-3.072-6.656-6.656-6.656h-107.52z m0 94.208c-3.584 0-6.656 3.072-6.656 6.656v40.448c0 3.584 3.072 6.656 6.656 6.656h107.52c3.584 0 6.656-3.072 6.656-6.656V491.52c0-3.584-3.072-6.656-6.656-6.656h-107.52z m0 94.208c-3.584 0-6.656 3.072-6.656 6.656v40.448c0 3.584 3.072 6.656 6.656 6.656h107.52c3.584 0 6.656-3.072 6.656-6.656v-40.448c0-3.584-3.072-6.656-6.656-6.656h-107.52z m0 94.208c-3.584 0-6.656 3.072-6.656 6.656v40.448c0 3.584 3.072 6.656 6.656 6.656h107.52c3.584 0 6.656-3.072 6.656-6.656v-40.448c0-3.584-3.072-6.656-6.656-6.656h-107.52z" p-id="13222"></path></svg>
