<svg t="1750411865378" class="icon" viewBox="0 0 1024 1024" version="1.1" xmlns="http://www.w3.org/2000/svg" p-id="10986" width="32" height="32"><path d="M160.512 128c17.664 0 32-14.336 32-32S178.176 64 160.512 64l-64 0c-17.664 0-32 14.336-32 32l0 768c0 17.664 14.336 32 32 32l64 0c17.664 0 32-14.336 32-32S178.176 832 160.512 832l-32 0L128.512 128 160.512 128zM896.512 128l-512 0c-35.392 0-64 28.608-64 64l0 576c0 35.392 28.608 64 64 64l512 0c35.392 0 64-28.608 64-64L960.512 192C960.512 156.608 931.904 128 896.512 128zM512.512 768l-128 0 0-128 128 0L512.512 768zM512.512 576l-128 0L384.512 384l128 0L512.512 576zM512.512 320l-128 0L384.512 192l128 0L512.512 320zM704.512 768l-128 0 0-128 128 0L704.512 768zM704.512 576l-128 0L576.512 384l128 0L704.512 576zM704.512 320l-128 0L576.512 192l128 0L704.512 320zM896.512 768l-128 0 0-128 128 0L896.512 768zM896.512 576l-128 0L768.512 384l128 0L896.512 576zM896.512 320l-128 0L768.512 192l128 0L896.512 320z" p-id="10987"></path></svg>