<svg t="1756534507544" class="icon" viewBox="0 0 1024 1024" version="1.1" xmlns="http://www.w3.org/2000/svg" p-id="4563" xmlns:xlink="http://www.w3.org/1999/xlink" width="200" height="200"><path d="M828.952381 121.904762a73.142857 73.142857 0 0 1 73.142857 73.142857v633.904762a73.142857 73.142857 0 0 1-73.142857 73.142857H195.047619a73.142857 73.142857 0 0 1-73.142857-73.142857V195.047619a73.142857 73.142857 0 0 1 73.142857-73.142857h633.904762zM316.952381 719.238095H195.047619V828.952381h121.904762v-109.714286z m512 0H390.095238V828.952381h438.857143v-109.714286zM316.952381 536.380952H195.047619v109.714286h121.904762V536.380952z m512 0H390.095238v109.714286h438.857143V536.380952z m-512-182.857142H195.047619V463.238095h121.904762v-109.714285z m512 0H390.095238V463.238095h438.857143v-109.714285z" p-id="4564"></path></svg>
