<svg t="1749630601829" class="icon" viewBox="0 0 1024 1024" version="1.1" xmlns="http://www.w3.org/2000/svg" p-id="4295" width="200" height="200"><path d="M69.888 31.872A38.4 38.4 0 0 1 107.776 64l0.512 6.272-0.064 849.792H952a38.4 38.4 0 0 1 37.888 32.192l0.512 6.208a38.4 38.4 0 0 1-32.192 37.888l-6.208 0.512H69.888A38.4 38.4 0 0 1 32 964.736l-0.512-6.272V70.272a38.4 38.4 0 0 1 38.4-38.4z m203.584 530.944a38.4 38.4 0 0 1 37.952 32.128l0.448 6.272v228.16a38.4 38.4 0 0 1-76.288 6.208l-0.512-6.208v-228.16a38.4 38.4 0 0 1 38.4-38.4z m192-155.712a38.4 38.4 0 0 1 37.952 32.128l0.448 6.272v383.872a38.4 38.4 0 0 1-76.288 6.208l-0.512-6.208V445.504a38.4 38.4 0 0 1 38.4-38.4z m192 53.056a38.4 38.4 0 0 1 37.952 32.128l0.448 6.272v330.88a38.4 38.4 0 0 1-76.288 6.144l-0.512-6.208V498.56a38.4 38.4 0 0 1 38.4-38.4z m192-133.44a38.4 38.4 0 0 1 37.952 32.192l0.448 6.208v464.256a38.4 38.4 0 0 1-76.288 6.208l-0.512-6.208V365.12a38.4 38.4 0 0 1 38.4-38.4zM922.88 80.64a38.4 38.4 0 0 1 2.944 49.088l-4.608 5.184L656.448 384a38.4 38.4 0 0 1-44.48 5.888l-5.184-3.392L474.24 284.8 231.936 520.768a38.4 38.4 0 0 1-49.024 3.84l-5.312-4.544a38.4 38.4 0 0 1-3.776-49.024l4.48-5.312 266.176-259.2a38.4 38.4 0 0 1 44.928-6.336l5.248 3.392 132.928 101.952 241.024-226.56a38.4 38.4 0 0 1 54.272 1.6z" p-id="4296"></path></svg>