<svg t="1748228273229" class="icon" viewBox="0 0 1024 1024" version="1.1" xmlns="http://www.w3.org/2000/svg" p-id="7823" width="200" height="200"><path d="M469.333333 87.466667C253.738667 108.8 85.333333 290.730667 85.333333 512c0 235.648 191.018667 426.666667 426.666667 426.666667a424.96 424.96 0 0 0 270.549333-96.725334l-88.917333-92.8A298.666667 298.666667 0 1 1 469.333333 216.32V87.424zM554.666667 216.32A298.837333 298.837333 0 0 1 807.68 469.333333h128.853333A426.794667 426.794667 0 0 0 554.666667 87.466667v128.853333zM936.533333 554.666667h-128.853333a297.088 297.088 0 0 1-54.4 133.376l89.557333 93.44A424.704 424.704 0 0 0 936.533333 554.666667z" p-id="7824"></path></svg>