<svg t="1749632633650" class="icon" viewBox="0 0 1024 1024" version="1.1" xmlns="http://www.w3.org/2000/svg" p-id="29879" width="200" height="200"><path d="M264.832 373.568l234.624-177.984 272.896 148.416-49.472 310.656-224 155.52-132.48-237.248z"  p-id="29880"></path><path d="M498.88 0l434.88 251.072v502.208l-434.88 251.072L64 753.28V251.072L498.88 0z m-16 529.792l-364.544 210.496 364.544 210.496V529.792z m32 0v420.992l364.544-210.496-364.544-210.496z m380.48-238.144L530.88 502.144l364.48 210.432V291.648z m-793.024 0v420.928l364.544-210.432-364.544-210.496zM482.88 53.504L118.4 263.936l364.48 210.496V53.504z m32 0v420.928l364.48-210.432L514.88 53.504z" p-id="29881"></path></svg>