<svg t="1748228222516" class="icon" viewBox="0 0 1170 1024" version="1.1" xmlns="http://www.w3.org/2000/svg" p-id="4673" width="200" height="200"><path d="M1170.432 877.568v73.216H0V73.216h73.216v804.352h1097.216z" fill="" p-id="4674"></path><path d="M370.688 725.504c0 52.224 41.984 94.208 94.208 94.208s94.208-41.984 94.208-94.208-41.984-94.208-94.208-94.208-94.208 42.496-94.208 94.208zM182.272 527.872c0 52.224 41.984 94.208 94.208 94.208s94.208-41.984 94.208-94.208S328.704 433.664 276.48 433.664s-94.208 41.984-94.208 94.208zM608.256 541.184c0 52.224 41.984 94.208 94.208 94.208s94.208-41.984 94.208-94.208-41.984-94.208-94.208-94.208-94.208 41.984-94.208 94.208zM877.568 446.976c0 51.712 41.984 94.208 94.208 94.208s94.208-41.984 94.208-94.208c0-51.712-41.984-94.208-94.208-94.208s-94.208 41.984-94.208 94.208zM356.352 291.328c0 52.224 41.984 94.208 94.208 94.208s94.208-41.984 94.208-94.208S502.784 197.12 450.56 197.12s-94.208 41.984-94.208 94.208zM640 239.104c0 52.224 41.984 94.208 94.208 94.208s94.208-41.984 94.208-94.208-41.984-94.208-94.208-94.208S640 187.392 640 239.104z" fill="" p-id="4675"></path></svg>