<svg t="1756202400006" class="icon" viewBox="0 0 1024 1024" version="1.1" xmlns="http://www.w3.org/2000/svg" p-id="9020" width="200" height="200"><path d="M128 896h768v64H64V128h64z" p-id="9021"></path><path d="M160 704c96-128 160-128 256-64s160 64 256-32 160-64 192-64v128c-32 0-96 0-192 64s-160 96-256 32-160-64-256 64V704z" fill="currentColor" opacity="0.9" p-id="9022"></path><path d="M160 576c96-96 160-96 256-32s160 32 256-48 160-48 192-48v96c-32 0-96 0-192 48s-160 80-256 16-160-64-256 32V576z" fill="currentColor" opacity="0.5" p-id="9023"></path></svg>
