<svg t="1756193294692" class="icon" viewBox="0 0 1024 1024" version="1.1" xmlns="http://www.w3.org/2000/svg" p-id="12814" width="200" height="200"><path d="M469.333333 540.444444h-256v113.777778h56.888889a28.444444 28.444444 0 0 1 28.444445 28.444445v170.666666a28.444444 28.444444 0 0 1-28.444445 28.444445h-199.111111a28.444444 28.444444 0 0 1-28.444444-28.444445v-170.666666a28.444444 28.444444 0 0 1 28.444444-28.444445h56.888889V512a56.888889 56.888889 0 0 1 50.232889-56.490667L184.888889 455.111111h284.444444V369.777778h-56.888889a28.444444 28.444444 0 0 1-28.444444-28.444445V170.666667a28.444444 28.444444 0 0 1 28.444444-28.444445h199.111112a28.444444 28.444444 0 0 1 28.444444 28.444445v170.666666a28.444444 28.444444 0 0 1-28.444444 28.444445h-56.888889V455.111111h284.444444a56.888889 56.888889 0 0 1 56.490667 50.232889L896 512v142.222222h56.888889a28.444444 28.444444 0 0 1 28.444444 28.444445v170.666666a28.444444 28.444444 0 0 1-28.444444 28.444445h-199.111111a28.444444 28.444444 0 0 1-28.444445-28.444445v-170.666666a28.444444 28.444444 0 0 1 28.444445-28.444445h56.888889v-113.777778h-256v113.777778h56.888889a28.444444 28.444444 0 0 1 28.444444 28.444445v170.666666a28.444444 28.444444 0 0 1-28.444444 28.444445h-199.111112a28.444444 28.444444 0 0 1-28.444444-28.444445v-170.666666a28.444444 28.444444 0 0 1 28.444444-28.444445h56.888889v-113.777778z" p-id="12815"></path></svg>
