<svg t="1751637881846" class="icon" viewBox="0 0 1024 1024" version="1.1" xmlns="http://www.w3.org/2000/svg" p-id="3674" id="mx_n_1751637881847" width="128" height="128"><path d="M512 85.333333c235.648 0 426.666667 191.018667 426.666667 426.666667v4.096l-0.042667 2.133333-0.085333 4.266667-0.128 4.522667-0.213334 4.565333-0.256 4.693333-0.298666 4.864-0.512 7.424-0.426667 5.12-0.554667 5.12-0.554666 5.248-0.64 5.248-0.341334 2.688-0.725333 5.376-0.810667 5.418667-0.853333 5.461333-0.938667 5.461334-1.024 5.504-0.554666 2.730666-1.152 5.546667a370.346667 370.346667 0 0 1-1.578667 7.082667l-1.152 4.693333-0.597333 2.389333-1.237334 4.693334c-0.853333 3.114667-1.706667 6.186667-2.688 9.301333l-1.408 4.608c-14.250667 44.245333-38.186667 82.602667-77.013333 92.586667-25.344 6.485333-56.618667 4.266667-89.770667-1.28l-6.656-1.152-6.698666-1.237334-6.741334-1.28-6.741333-1.365333-6.784-1.408-6.826667-1.450667-12.458666-2.730666-26.88-5.973334-11.477334-2.474666-5.674666-1.194667-8.405334-1.706667-5.546666-1.109333-5.546667-1.024-5.461333-0.981333-5.376-0.896-5.333334-0.853334-5.248-0.768a334.848 334.848 0 0 0-10.325333-1.28l-5.034667-0.512c-27.434667-2.517333-50.901333-0.426667-67.072 10.752-11.306667 7.808-11.349333 20.522667-6.144 35.584l0.981334 2.688 0.512 1.365334 1.152 2.730666 0.554666 1.408 1.28 2.816 2.005334 4.266667 1.450666 2.901333 1.493334 2.901334 3.157333 5.930666 3.328 5.973334 10.624 18.773333 2.432 4.352 2.346667 4.352 1.066666 2.048 2.133334 4.096c6.912 13.610667 11.946667 26.453333 11.946666 37.333333v1.706667l-0.085333 3.413333a145.92 145.92 0 0 1-0.682667 10.197334l-0.426666 3.370666C567.338667 906.538667 549.034667 938.666667 512 938.666667 276.352 938.666667 85.333333 747.648 85.333333 512S276.352 85.333333 512 85.333333z m0 66.474667a360.149333 360.149333 0 0 0-11.904 720.170667l3.925333 0.085333 0.170667-0.554667a63.146667 63.146667 0 0 0 2.304-13.653333l0.085333-2.261333-0.256-0.682667-0.554666-1.450667-0.768-1.749333-0.768-1.706667-1.28-2.688-1.450667-2.944-2.389333-4.48-2.090667-3.84-4.266667-7.68-6.912-12.16-2.773333-4.992-3.84-6.954666-2.304-4.352a182.442667 182.442667 0 0 1-16.085333-39.338667c-10.325333-38.4-1.792-77.482667 34.133333-102.357333 30.293333-20.906667 65.92-26.197333 109.397333-22.442667l6.698667 0.64 6.528 0.725333 4.864 0.597334 4.906667 0.682666 5.034666 0.768 3.413334 0.554667 5.333333 0.896 5.546667 0.981333 5.845333 1.109334 6.186667 1.237333 6.528 1.28 9.386666 2.005333 7.637334 1.621334 19.882666 4.394666 17.493334 3.84 9.941333 2.176 5.717333 1.194667 8.234667 1.706667 5.290667 1.024 5.12 0.938666 4.906666 0.853334 4.736 0.853333 4.608 0.725333 4.394667 0.682667 6.357333 0.896 4.010667 0.512 3.84 0.426667 5.546667 0.554666 3.498666 0.298667 3.328 0.213333 1.621334 0.042667 3.157333 0.128h7.253333l5.205334-0.298667 2.432-0.256 2.261333-0.298666a49.92 49.92 0 0 0 5.248-1.066667c8.405333-2.133333 20.266667-17.493333 30.250667-48.64 10.197333-31.786667 15.573333-72.874667 15.573333-107.776A360.192 360.192 0 0 0 512 151.808z m-254.890667 310.314667a55.424 55.424 0 1 1 0 110.848 55.424 55.424 0 0 1 0-110.848z m470.997334-127.445334a55.424 55.424 0 1 1 0 110.805334 55.424 55.424 0 0 1 0-110.805334z m-393.386667-66.474666a55.424 55.424 0 1 1 0 110.805333 55.424 55.424 0 0 1 0-110.805333z m210.517333-72.064a55.424 55.424 0 1 1 0 110.848 55.424 55.424 0 0 1 0-110.848z" p-id="3675"></path></svg>
