<svg t="1751638149731" class="icon" viewBox="0 0 1024 1024" version="1.1" xmlns="http://www.w3.org/2000/svg" p-id="7511" id="mx_n_1751638149732" width="128" height="128"><path d="M342.49536 553.6a184.704 184.704 0 0 1 0-83.104l-49.376-29.376 49.728-88.672 49.376 29.344a172.96 172.96 0 0 1 70.016-41.568V281.6h99.456v58.624c26.176 8 50.176 22.24 69.984 41.6l49.376-29.44 49.728 88.704-49.376 29.344a184.704 184.704 0 0 1 0 83.04l49.376 29.408-49.728 88.672-49.344-29.28a172.96 172.96 0 0 1-69.984 41.568V742.4h-99.456v-58.656a172.96 172.96 0 0 1-70.016-41.6l-49.376 29.376-49.728-88.672 49.376-29.312zM511.99936 588.8c41.248 0 74.656-34.4 74.656-76.8 0-42.432-33.408-76.8-74.656-76.8-41.248 0-74.688 34.368-74.688 76.8 0 20.352 7.872 39.904 21.888 54.304 14.016 14.4 33.024 22.496 52.832 22.496h-0.032z m149.376-486.496H163.45536V921.6h696.96V307.2h-199.072V102.304zM63.99936 50.784C64.03136 37.28 69.31136 24.32 78.62336 14.816A48.864 48.864 0 0 1 113.72736 0h597.376L959.99936 256v716.448c0.096 13.568-5.056 26.656-14.336 36.32-9.28 9.664-21.888 15.136-35.104 15.232H113.43936C86.23936 1023.84 64.19136 1001.184 63.99936 973.216V50.784z" p-id="7512"></path></svg>
