<svg t="1755047483541" class="icon" viewBox="0 0 1024 1024" version="1.1" xmlns="http://www.w3.org/2000/svg" p-id="12012" width="200" height="200"><path d="M906.24 532.48H512c-20.48 0-35.84-15.36-35.84-35.84 0-20.48 15.36-35.84 35.84-35.84h394.24c20.48 0 35.84 15.36 35.84 35.84 0 20.48-15.36 35.84-35.84 35.84zM225.28 624.64C153.6 624.64 92.16 563.2 92.16 491.52 92.16 419.84 153.6 358.4 225.28 358.4 296.96 358.4 358.4 419.84 358.4 491.52c-5.12 76.8-61.44 133.12-133.12 133.12z m0-189.44c-35.84 0-61.44 25.6-61.44 61.44s25.6 61.44 61.44 61.44 61.44-25.6 61.44-61.44S256 435.2 225.28 435.2zM906.24 194.56H512c-20.48 0-35.84-15.36-35.84-35.84s15.36-35.84 35.84-35.84h394.24c20.48 0 35.84 15.36 35.84 35.84s-15.36 35.84-35.84 35.84zM296.96 261.12c-10.24 0-15.36-5.12-25.6-10.24L128 107.52c-15.36-15.36-15.36-35.84 0-51.2 15.36-15.36 35.84-15.36 51.2 0L322.56 204.8c15.36 15.36 15.36 35.84 0 51.2-5.12 5.12-15.36 5.12-25.6 5.12z" p-id="12013"></path><path d="M153.6 261.12c-10.24 0-15.36-5.12-25.6-10.24-15.36-15.36-15.36-35.84 0-51.2L276.48 51.2c15.36-15.36 35.84-15.36 51.2 0 15.36 15.36 15.36 35.84 0 51.2L179.2 250.88c-10.24 10.24-15.36 10.24-25.6 10.24zM906.24 870.4H512c-20.48 0-35.84-15.36-35.84-35.84s15.36-35.84 35.84-35.84h394.24c20.48 0 35.84 15.36 35.84 35.84s-15.36 35.84-35.84 35.84zM225.28 967.68c-71.68 0-133.12-61.44-133.12-133.12s61.44-133.12 133.12-133.12c71.68 0 133.12 61.44 133.12 133.12s-61.44 133.12-133.12 133.12z m0-194.56c-35.84 0-61.44 25.6-61.44 61.44s25.6 61.44 61.44 61.44 61.44-25.6 61.44-61.44c0-30.72-25.6-61.44-61.44-61.44z" p-id="12014"></path></svg>
